# xmcd CD database file
#
# Track frame offsets:
#	150
#	45955
#	77525
#	115325
#
# Disc length: 2070 seconds
#
# Revision: 0
# Processed by: cddbd v1.5.2PL0 Copyright (c) Steve Scherf et al.
# Submitted via: CDex 1.70beta2
#
DISCID=22081404
DTITLE=Milt Jackson - Sunflower
DYEAR=1973
DGENRE=Jazz
TTITLE0=For Someone I Love [What's Your Story]
TTITLE1=What Are You Doing The Rest Of Your Life?
TTITLE2=People Make The World Go Round
TTITLE3=Sunflower
EXTD=YEAR: 1973
EXTT0=
EXTT1=
EXTT2=
EXTT3=
PLAYORDER=
